<svg xmlns="http://www.w3.org/2000/svg" width="64" height="64" viewBox="0 0 24 24" fill="none" stroke="currentColor" stroke-width="1.5" stroke-linecap="round" stroke-linejoin="round">
  <!-- Cloud -->
  <path d="M17 14H8c-2.2 0-4-1.8-4-4s1.8-4 4-4h.5C8.5 4 11 2 14 2s5 2.5 5 5.5-2.5 5.5-5.5 5.5H17z"/>
  <!-- Chat bubble -->
  <path d="M9 12h7a2 2 0 0 1 2 2v3a2 2 0 0 1-2 2h-2l-2 2v-2H9a2 2 0 0 1-2-2v-3a2 2 0 0 1 2-2z"/>
  <!-- Dots -->
  <circle cx="12" cy="15.5" r="0.9" fill="currentColor" stroke="none"/>
  <circle cx="14.5" cy="15.5" r="0.9" fill="currentColor" stroke="none"/>
  <circle cx="17" cy="15.5" r="0.9" fill="currentColor" stroke="none"/>
</svg>
